<?xml version="1.0" encoding="utf-8"?>
<!-- Uploaded to: SVG Repo, www.svgrepo.com, Generator: SVG Repo Mixer Tools -->
<svg fill="#000000" viewBox="0 0 32 32" version="1.1" xmlns="http://www.w3.org/2000/svg">
<title>box</title>
<path d="M30.922 8.901l-2.752-7.339c-0.182-0.478-0.636-0.812-1.169-0.812-0 0-0.001 0-0.001 0h-22c-0.533 0-0.988 0.334-1.168 0.804l-0.003 0.009-2.733 7.313c-0.207 0.318-0.335 0.706-0.346 1.122l-0 0.003v19c0.002 1.242 1.008 2.248 2.25 2.25h26c1.242-0.002 2.248-1.008 2.25-2.25v-19c-0.010-0.408-0.131-0.787-0.334-1.108l0.005 0.009zM27.821 7.75h-10.571v-4.5h8.883zM5.867 3.25h8.883v4.5h-10.565zM28.75 28.75h-25.5v-18.5h25.5z"></path>
</svg>