<svg width="64" height="64" viewBox="0 0 64 64" fill="none" xmlns="http://www.w3.org/2000/svg">
<rect x="6.5" y="6.5" width="51" height="51" rx="3.5" stroke="#4D4D4D" stroke-width="3"/>
<path d="M32.0664 23.4785C30.6916 23.4785 30.0041 23.1133 30.0041 22.3828V19.0957C30.0041 18.7211 30.1687 18.4495 30.4979 18.2809C30.8271 18.0936 31.3499 18 32.0664 18H32.9378C33.6542 18 34.177 18.0936 34.5062 18.2809C34.8354 18.4495 35 18.7211 35 19.0957V22.3828C35 23.1133 34.3126 23.4785 32.9378 23.4785H32.0664ZM29.4813 50C29.0941 50 28.7455 49.9438 28.4357 49.8314C28.1452 49.7191 28 49.5224 28 49.2414C28 49.1103 28.0581 48.9043 28.1743 48.6234C28.3098 48.3611 28.397 48.1738 28.4357 48.0615C29.036 46.9377 29.4813 45.7577 29.7718 44.5215C30.0622 43.3041 30.2075 41.9368 30.2075 40.4197C30.2075 39.9327 30.3817 39.5487 30.7303 39.2678C31.0788 38.9681 31.592 38.8183 32.2697 38.8183H32.7635C33.4025 38.8183 33.8963 38.9494 34.2448 39.2116C34.6127 39.4551 34.7967 39.7828 34.7967 40.1949C34.7967 42.0492 34.4869 43.7255 33.8672 45.2239C33.2476 46.7223 32.5118 47.8929 31.6598 48.7357C30.8271 49.5786 30.101 50 29.4813 50Z" fill="#4D4D4D"/>
</svg>
