<svg width="17" height="17" viewBox="0 0 17 17" fill="none" xmlns="http://www.w3.org/2000/svg">
<path d="M8.50001 14.9015C8.98083 14.9021 9.4602 14.8487 9.92907 14.7422L11.4936 16.1739C12.2702 15.8706 12.9961 15.451 13.6465 14.9294L13.1883 12.8562C13.8462 12.1501 14.3357 11.3042 14.62 10.3819L16.6414 9.74311C16.7659 8.91948 16.7659 8.08182 16.6414 7.25819L14.62 6.61936C14.3359 5.69662 13.8464 4.85023 13.1883 4.14374L13.6465 2.07319C12.9961 1.55163 12.2702 1.13201 11.4936 0.828735L9.92907 2.2578C8.98864 2.04148 8.01138 2.04148 7.07095 2.2578L5.50642 0.828735C4.72985 1.13201 4.00392 1.55163 3.35353 2.07319L3.81173 4.14374C3.15382 4.84985 2.66435 5.69576 2.38001 6.61803L0.358604 7.25686C0.234062 8.08049 0.234062 8.91816 0.358604 9.74178L2.38001 10.3806C2.66416 11.3034 3.15365 12.1497 3.81173 12.8562L3.35353 14.9268C4.00392 15.4483 4.72985 15.868 5.50642 16.1712L7.07095 14.7422C7.53982 14.8487 8.01919 14.9021 8.50001 14.9015ZM5.57814 8.49999C5.57814 7.92209 5.7495 7.35718 6.07056 6.87668C6.39162 6.39618 6.84795 6.02168 7.38186 5.80053C7.91576 5.57938 8.50325 5.52151 9.07004 5.63425C9.63683 5.74699 10.1575 6.02528 10.5661 6.43391C10.9747 6.84254 11.253 7.36317 11.3657 7.92996C11.4785 8.49674 11.4206 9.08424 11.1995 9.61814C10.9783 10.152 10.6038 10.6084 10.1233 10.9294C9.64282 11.2505 9.0779 11.4219 8.50001 11.4219C7.72508 11.4219 6.98189 11.114 6.43393 10.5661C5.88597 10.0181 5.57814 9.27492 5.57814 8.49999Z" fill="#87AC81"/>
</svg>
