<?xml version="1.0" encoding="UTF-8" standalone="no"?>
<!-- Uploaded to: SVG Repo, www.svgrepo.com, Generator: SVG Repo Mixer Tools -->

<svg
   xmlns:dc="http://purl.org/dc/elements/1.1/"
   xmlns:cc="http://creativecommons.org/ns#"
   xmlns:rdf="http://www.w3.org/1999/02/22-rdf-syntax-ns#"
   xmlns:svg="http://www.w3.org/2000/svg"
   xmlns="http://www.w3.org/2000/svg"
   xmlns:sodipodi="http://sodipodi.sourceforge.net/DTD/sodipodi-0.dtd"
   xmlns:inkscape="http://www.inkscape.org/namespaces/inkscape"
   viewBox="0 0 25 25"
   fill="none"
   version="1.1"
   id="svg8"
   sodipodi:docname="io_type_string.svg"
   inkscape:version="0.92.5 (2060ec1f9f, 2020-04-08)">
  <metadata
     id="metadata14">
    <rdf:RDF>
      <cc:Work
         rdf:about="">
        <dc:format>image/svg+xml</dc:format>
        <dc:type
           rdf:resource="http://purl.org/dc/dcmitype/StillImage" />
      </cc:Work>
    </rdf:RDF>
  </metadata>
  <defs
     id="defs12" />
  <sodipodi:namedview
     pagecolor="#ffffff"
     bordercolor="#666666"
     borderopacity="1"
     objecttolerance="10"
     gridtolerance="10"
     guidetolerance="10"
     inkscape:pageopacity="0"
     inkscape:pageshadow="2"
     inkscape:window-width="1574"
     inkscape:window-height="829"
     id="namedview10"
     showgrid="false"
     inkscape:zoom="18.88"
     inkscape:cx="12.729569"
     inkscape:cy="16.26195"
     inkscape:window-x="58"
     inkscape:window-y="27"
     inkscape:window-maximized="0"
     inkscape:current-layer="svg8" />
  <path
     d="m 11.282173,16.960881 h 2.229486 L 8.6310812,3.4430859 H 6.3734223 L 1.4927712,16.960881 h 2.154604 L 4.8933017,13.373072 H 10.045603 Z M 7.394526,5.8974537 H 7.5537792 L 9.5116595,11.611856 H 5.4272744 Z"
     id="path2"
     inkscape:connector-curvature="0"
     style="fill:#101112;stroke-width:1.47579658" />
  <path
     d="m 18.860831,15.433874 c -1.096074,0 -1.892414,-0.533943 -1.892414,-1.451889 0,-0.89935 0.637101,-1.377213 2.042207,-1.470778 l 2.491883,-0.159239 v 0.85242 c 0,1.26461 -1.124115,2.229486 -2.641676,2.229486 z m -0.515348,1.69569 c 1.339728,0 2.454397,-0.580873 3.063311,-1.601977 h 0.159238 v 1.433294 h 1.939197 V 9.9911363 c 0,-2.1545302 -1.442591,-3.4285559 -4.000147,-3.4285559 -2.313754,0 -3.962514,1.1241438 -4.168682,2.8758701 h 1.948641 c 0.224764,-0.7212661 1.002361,-1.1334561 2.126476,-1.1334561 1.377065,0 2.08899,0.608958 2.08899,1.6861419 v 0.8806077 l -2.763577,0.159239 c -2.42621,0.14994 -3.793978,1.208529 -3.793978,3.044568 0,1.864226 1.433294,3.054013 3.400531,3.054013 z"
     id="path4"
     inkscape:connector-curvature="0"
     style="fill:#101112;stroke-width:1.47579658" />
  <path
     d="M 23.507229,21.556954 H 1.4927712 V 19.785998 H 23.507229 Z"
     id="path6"
     inkscape:connector-curvature="0"
     style="clip-rule:evenodd;fill:#101112;fill-rule:evenodd;stroke-width:1.47579658" />
</svg>
