<svg width="64" height="64" viewBox="0 0 64 64" fill="none" xmlns="http://www.w3.org/2000/svg">
<path d="M15.207 38C15.0247 38 14.8913 37.9577 14.8066 37.873C14.722 37.7884 14.6797 37.6582 14.6797 37.4824V26.3691C14.6797 26.1868 14.722 26.0566 14.8066 25.9785C14.8913 25.8939 15.0247 25.8516 15.207 25.8516H21.2617C21.3854 25.8516 21.4733 25.8906 21.5254 25.9688C21.584 26.0469 21.6133 26.1803 21.6133 26.3691V26.6523C21.6133 26.8281 21.584 26.9583 21.5254 27.043C21.4733 27.1276 21.3854 27.1699 21.2617 27.1699H16.2129V31.125H20.7441C20.8678 31.125 20.9557 31.1673 21.0078 31.252C21.0664 31.3366 21.0957 31.4701 21.0957 31.6523V31.916C21.0957 32.0983 21.0664 32.2318 21.0078 32.3164C20.9557 32.3945 20.8678 32.4336 20.7441 32.4336H16.2129V36.6816H21.2812C21.4049 36.6816 21.4928 36.724 21.5449 36.8086C21.6035 36.8867 21.6328 37.0169 21.6328 37.1992V37.4824C21.6328 37.6582 21.6035 37.7884 21.5449 37.873C21.4928 37.9577 21.4049 38 21.2812 38H15.207ZM24.6992 38C24.5169 38 24.3835 37.9577 24.2988 37.873C24.2142 37.7884 24.1719 37.6582 24.1719 37.4824V26.1934C24.1719 25.9329 24.4062 25.8027 24.875 25.8027H25.0117C25.474 25.8027 25.7051 25.9329 25.7051 26.1934V36.6816H30.4805C30.6042 36.6816 30.6921 36.724 30.7441 36.8086C30.7962 36.8867 30.8223 37.0169 30.8223 37.1992V37.4824C30.8223 37.6582 30.7962 37.7884 30.7441 37.873C30.6921 37.9577 30.6042 38 30.4805 38H24.6992ZM35.1289 38.0977C34.4909 38.0977 33.8952 38.0293 33.3418 37.8926C32.7949 37.7493 32.3555 37.5801 32.0234 37.3848C31.6979 37.1829 31.5352 37.0007 31.5352 36.8379C31.5352 36.7467 31.571 36.6263 31.6426 36.4766C31.7207 36.3268 31.8086 36.1934 31.9062 36.0762C32.0039 35.959 32.082 35.9004 32.1406 35.9004C32.1927 35.9004 32.3066 35.9525 32.4824 36.0566C32.8861 36.265 33.2865 36.4375 33.6836 36.5742C34.0807 36.7109 34.5625 36.7793 35.1289 36.7793C35.5716 36.7793 35.9655 36.6947 36.3105 36.5254C36.6556 36.3561 36.9225 36.1185 37.1113 35.8125C37.3066 35.5 37.4043 35.1419 37.4043 34.7383C37.4043 34.3086 37.2871 33.9538 37.0527 33.6738C36.8249 33.3874 36.5449 33.1628 36.2129 33C35.8874 32.8307 35.4121 32.6224 34.7871 32.375C34.11 32.1146 33.5729 31.8737 33.1758 31.6523C32.7852 31.4245 32.4499 31.0957 32.1699 30.666C31.8965 30.2363 31.7598 29.6667 31.7598 28.957C31.7598 28.3385 31.9193 27.7852 32.2383 27.2969C32.5573 26.8021 33.0098 26.418 33.5957 26.1445C34.1816 25.8711 34.8555 25.7344 35.6172 25.7344C35.9622 25.7344 36.3561 25.7832 36.7988 25.8809C37.2415 25.972 37.6191 26.099 37.9316 26.2617C38.2507 26.4245 38.4102 26.6035 38.4102 26.7988C38.4102 26.8835 38.3743 27.0007 38.3027 27.1504C38.2376 27.2936 38.1595 27.4238 38.0684 27.541C37.9772 27.6582 37.9056 27.7168 37.8535 27.7168C37.7949 27.7168 37.6777 27.668 37.502 27.5703C37.209 27.4141 36.9193 27.2904 36.6328 27.1992C36.3464 27.1016 35.998 27.0527 35.5879 27.0527C34.9173 27.0527 34.3737 27.2253 33.957 27.5703C33.5469 27.9154 33.3418 28.3971 33.3418 29.0156C33.3418 29.3867 33.4329 29.6927 33.6152 29.9336C33.7975 30.1745 34.0286 30.3665 34.3086 30.5098C34.5885 30.653 34.9792 30.819 35.4805 31.0078C35.513 31.0143 35.5879 31.0404 35.7051 31.0859C36.3952 31.3529 36.9583 31.6133 37.3945 31.8672C37.8372 32.1146 38.2116 32.4727 38.5176 32.9414C38.8301 33.4102 38.9863 34.0091 38.9863 34.7383C38.9863 35.4219 38.8268 36.0176 38.5078 36.5254C38.1953 37.0332 37.7461 37.4238 37.1602 37.6973C36.5807 37.9642 35.9036 38.0977 35.1289 38.0977ZM41.7891 38C41.6068 38 41.4733 37.9577 41.3887 37.873C41.304 37.7884 41.2617 37.6582 41.2617 37.4824V26.3691C41.2617 26.1868 41.304 26.0566 41.3887 25.9785C41.4733 25.8939 41.6068 25.8516 41.7891 25.8516H47.8438C47.9674 25.8516 48.0553 25.8906 48.1074 25.9688C48.166 26.0469 48.1953 26.1803 48.1953 26.3691V26.6523C48.1953 26.8281 48.166 26.9583 48.1074 27.043C48.0553 27.1276 47.9674 27.1699 47.8438 27.1699H42.7949V31.125H47.3262C47.4499 31.125 47.5378 31.1673 47.5898 31.252C47.6484 31.3366 47.6777 31.4701 47.6777 31.6523V31.916C47.6777 32.0983 47.6484 32.2318 47.5898 32.3164C47.5378 32.3945 47.4499 32.4336 47.3262 32.4336H42.7949V36.6816H47.8633C47.987 36.6816 48.0749 36.724 48.127 36.8086C48.1855 36.8867 48.2148 37.0169 48.2148 37.1992V37.4824C48.2148 37.6582 48.1855 37.7884 48.127 37.873C48.0749 37.9577 47.987 38 47.8633 38H41.7891Z" fill="#4D4D4D"/>
<rect x="6.5" y="6.5" width="51" height="51" rx="3.5" stroke="#4D4D4D" stroke-width="3"/>
</svg>
