<svg width="64" height="64" viewBox="0 0 64 64" fill="none" xmlns="http://www.w3.org/2000/svg">
<rect x="6.5" y="6.5" width="51" height="51" rx="3.5" stroke="#4D4D4D" stroke-width="3"/>
<path d="M36.9163 46.8828L31.41 43.6025L34.5732 37.9791L36.5649 39.1506L34.5732 42.7824L38.0879 44.8912L36.9163 46.8828ZM23.5607 31.887L21.569 28.3724L18.1715 30.364L17 28.3724L22.5063 25.092L25.6695 30.7155L23.5607 31.887Z" fill="#5F90EB"/>
<path d="M42.6569 26.0293H36.2134V23.6862H40.3138V19.5858H42.6569V26.0293Z" fill="#5F90EB"/>
<path d="M34.9247 44.1883L34.4561 41.8452C39.1423 40.7908 42.5397 36.5732 42.5397 31.7699C42.5397 31.0669 42.4226 30.2469 42.3054 29.5439L44.6485 29.0753C44.8828 30.0126 45 30.9498 45 31.7699C45 37.8619 40.7824 43.0167 34.9247 44.1883Z" fill="#5F90EB"/>
<path d="M28.364 43.954C23.0921 42.3138 19.4603 37.5104 19.4603 31.887C19.4603 30.364 19.6946 28.841 20.2803 27.4351L22.5063 28.2552C22.0377 29.4268 21.8033 30.5983 21.8033 31.887C21.8033 36.4561 24.7322 40.3222 28.9498 41.728L28.364 43.954Z" fill="#5F90EB"/>
<path d="M39.8452 24.8577C37.8536 22.6318 35.0418 21.3431 32.113 21.3431C29.6527 21.3431 27.3096 22.2803 25.4351 23.8033L23.9121 22.046C26.1381 20.0544 29.0669 19 32.113 19C35.7448 19 39.1423 20.523 41.6025 23.2176L39.8452 24.8577Z" fill="#5F90EB"/>
</svg>
