<svg width="64" height="64" viewBox="0 0 64 64" fill="none" xmlns="http://www.w3.org/2000/svg">
<g clip-path="url(#clip0_16_3)">
<path d="M21.7188 47.0703C20.5938 47.0703 20.0312 46.7656 20.0312 46.1562V18.6641C20.0312 18.0391 20.5938 17.7266 21.7188 17.7266H22.0469C23.1562 17.7266 23.7109 18.0391 23.7109 18.6641V46.1562C23.7109 46.7656 23.1562 47.0703 22.0469 47.0703H21.7188ZM33.4844 47.0703C32.3594 47.0703 31.7969 46.7656 31.7969 46.1562V19.0859C31.7969 18.6484 31.8984 18.3359 32.1016 18.1484C32.3047 17.9453 32.625 17.8438 33.0625 17.8438H46.1875C46.4844 17.8438 46.6953 17.9453 46.8203 18.1484C46.9453 18.3359 47.0078 18.6484 47.0078 19.0859V19.7656C47.0078 20.1875 46.9453 20.5 46.8203 20.7031C46.6953 20.9062 46.4844 21.0078 46.1875 21.0078H35.4766V30.5H45.4375C45.7188 30.5 45.9297 30.6016 46.0703 30.8047C46.2109 31.0078 46.2812 31.3281 46.2812 31.7656V32.3984C46.2812 32.8359 46.2109 33.1562 46.0703 33.3594C45.9297 33.5469 45.7188 33.6406 45.4375 33.6406H35.4766V46.1562C35.4766 46.7656 34.9219 47.0703 33.8125 47.0703H33.4844Z" fill="#4D4D4D"/>
<rect x="6.5" y="6.5" width="51" height="51" rx="3.5" stroke="#4D4D4D" stroke-width="3"/>
</g>
<defs>
<clipPath id="clip0_16_3">
<rect width="64" height="64" fill="white"/>
</clipPath>
</defs>
</svg>
