<svg width="64" height="64" viewBox="0 0 64 64" fill="none" xmlns="http://www.w3.org/2000/svg">
<path d="M54 6.5H10C8.067 6.5 6.5 8.067 6.5 10V54C6.5 55.933 8.067 57.5 10 57.5H54C55.933 57.5 57.5 55.933 57.5 54V10C57.5 8.067 55.933 6.5 54 6.5Z" stroke="#4D4D4D" stroke-width="3"/>
<path d="M19.2734 40C18.9844 40 18.7734 39.9336 18.6406 39.8008C18.5078 39.668 18.4414 39.457 18.4414 39.168V26.2422C18.4414 25.9531 18.5078 25.7461 18.6406 25.6211C18.7734 25.4883 18.9844 25.4219 19.2734 25.4219H23.9375C25.3672 25.4219 26.5781 25.7031 27.5703 26.2656C28.5703 26.8203 29.3242 27.6406 29.832 28.7266C30.3477 29.8125 30.6055 31.1367 30.6055 32.6992C30.6055 34.2695 30.3477 35.5977 29.832 36.6836C29.3242 37.7695 28.5703 38.5938 27.5703 39.1562C26.5781 39.7188 25.3672 40 23.9375 40H19.2734ZM23.9375 37.2695C25.0469 37.2695 25.8867 36.8828 26.457 36.1094C27.0273 35.3281 27.3125 34.1914 27.3125 32.6992C27.3125 31.2148 27.0273 30.0859 26.457 29.3125C25.8867 28.5312 25.0469 28.1406 23.9375 28.1406H21.6758V37.2695H23.9375ZM39.1016 40.1758C37.6797 40.1758 36.4688 39.8867 35.4688 39.3086C34.4766 38.7305 33.7188 37.8867 33.1953 36.7773C32.6797 35.6602 32.4219 34.3008 32.4219 32.6992C32.4219 31.1055 32.6797 29.7539 33.1953 28.6445C33.7188 27.5273 34.4766 26.6836 35.4688 26.1133C36.4688 25.5352 37.6797 25.2461 39.1016 25.2461C40.5312 25.2461 41.7422 25.5352 42.7344 26.1133C43.7344 26.6836 44.4922 27.5273 45.0078 28.6445C45.5234 29.7539 45.7812 31.1055 45.7812 32.6992C45.7812 34.3008 45.5234 35.6602 45.0078 36.7773C44.4922 37.8867 43.7344 38.7305 42.7344 39.3086C41.7422 39.8867 40.5312 40.1758 39.1016 40.1758ZM39.1016 37.4336C40.2188 37.4336 41.0625 37.0312 41.6328 36.2266C42.2031 35.4141 42.4883 34.2383 42.4883 32.6992C42.4883 31.1602 42.2031 29.9922 41.6328 29.1953C41.0625 28.3984 40.2188 28 39.1016 28C37.9922 28 37.1484 28.4023 36.5703 29.207C36 30.0039 35.7148 31.168 35.7148 32.6992C35.7148 34.2383 36.0039 35.4141 36.582 36.2266C37.1602 37.0312 38 37.4336 39.1016 37.4336Z" fill="#4D4D4D"/>
</svg>
